<svg width="191" height="46" viewBox="0 0 191 46" fill="none" xmlns="http://www.w3.org/2000/svg">
<path d="M23.924 4.88V26H19.156V13.568L19.364 10.032L18.548 14.08L14.996 24.304H10.308L6.772 14.08L5.972 10.032L6.18 13.568V26H1.396V4.88H8.116L12.372 18.976L12.66 20.656L12.948 18.976L17.204 4.88H23.924ZM37.6445 26.384C36.2045 26.384 34.9245 26.0907 33.8045 25.504C32.6952 24.9067 31.8205 24.0907 31.1805 23.056C30.5512 22.0107 30.2365 20.816 30.2365 19.472C30.2365 18.128 30.5512 16.9333 31.1805 15.888C31.8205 14.832 32.6952 14 33.8045 13.392C34.9245 12.784 36.2045 12.48 37.6445 12.48C39.0845 12.48 40.3538 12.784 41.4525 13.392C42.5512 14 43.4098 14.832 44.0285 15.888C44.6472 16.9333 44.9565 18.128 44.9565 19.472C44.9565 20.816 44.6472 22.0107 44.0285 23.056C43.4098 24.0907 42.5512 24.9067 41.4525 25.504C40.3538 26.0907 39.0845 26.384 37.6445 26.384ZM37.6445 22.384C38.1992 22.384 38.6792 22.2613 39.0845 22.016C39.4898 21.7707 39.8045 21.424 40.0285 20.976C40.2525 20.528 40.3645 20.0213 40.3645 19.456C40.3645 18.88 40.2525 18.368 40.0285 17.92C39.8045 17.472 39.4898 17.12 39.0845 16.864C38.6792 16.608 38.1992 16.48 37.6445 16.48C37.0898 16.48 36.6045 16.608 36.1885 16.864C35.7832 17.12 35.4632 17.472 35.2285 17.92C35.0045 18.368 34.8925 18.88 34.8925 19.456C34.8925 20.0213 35.0045 20.528 35.2285 20.976C35.4632 21.424 35.7832 21.7707 36.1885 22.016C36.6045 22.2613 37.0898 22.384 37.6445 22.384ZM56.3198 26.384C55.0504 26.384 53.9464 26.0747 53.0078 25.456C52.0691 24.8267 51.3384 23.9893 50.8158 22.944C50.3038 21.888 50.0478 20.72 50.0478 19.44C50.0478 18.16 50.3038 16.9973 50.8158 15.952C51.3384 14.896 52.0691 14.0533 53.0078 13.424C53.9464 12.7947 55.0504 12.48 56.3198 12.48C57.1624 12.48 57.9091 12.6133 58.5598 12.88C59.2104 13.136 59.7384 13.4453 60.1438 13.808C60.5491 14.16 60.7944 14.4853 60.8798 14.784V3.984H65.7438V26H60.9278V23.872C60.7251 24.2667 60.3944 24.6613 59.9358 25.056C59.4771 25.44 58.9384 25.7547 58.3198 26C57.7011 26.256 57.0344 26.384 56.3198 26.384ZM57.8078 22.56C58.3944 22.56 58.9171 22.4267 59.3758 22.16C59.8451 21.8933 60.2131 21.5253 60.4798 21.056C60.7464 20.576 60.8798 20.0373 60.8798 19.44C60.8798 18.8427 60.7464 18.3093 60.4798 17.84C60.2131 17.36 59.8451 16.9867 59.3758 16.72C58.9171 16.4427 58.3944 16.304 57.8078 16.304C57.2424 16.304 56.7304 16.4427 56.2718 16.72C55.8238 16.9867 55.4664 17.36 55.1998 17.84C54.9438 18.3093 54.8158 18.8427 54.8158 19.44C54.8158 20.0373 54.9438 20.576 55.1998 21.056C55.4664 21.5253 55.8238 21.8933 56.2718 22.16C56.7304 22.4267 57.2424 22.56 57.8078 22.56ZM75.6347 20.464C75.6667 20.9333 75.8161 21.3493 76.0827 21.712C76.3494 22.0747 76.7174 22.3627 77.1867 22.576C77.6667 22.7787 78.2321 22.88 78.8827 22.88C79.5014 22.88 80.0561 22.816 80.5467 22.688C81.0481 22.56 81.4801 22.4 81.8427 22.208C82.2161 22.016 82.5041 21.8187 82.7067 21.616L84.5947 24.624C84.3281 24.912 83.9494 25.1947 83.4587 25.472C82.9787 25.7387 82.3441 25.9573 81.5547 26.128C80.7654 26.2987 79.7681 26.384 78.5627 26.384C77.1121 26.384 75.8214 26.112 74.6907 25.568C73.5601 25.024 72.6694 24.224 72.0187 23.168C71.3681 22.112 71.0427 20.8213 71.0427 19.296C71.0427 18.016 71.3201 16.864 71.8747 15.84C72.4401 14.8053 73.2561 13.9893 74.3227 13.392C75.3894 12.784 76.6747 12.48 78.1787 12.48C79.6081 12.48 80.8454 12.7413 81.8907 13.264C82.9467 13.7867 83.7574 14.5653 84.3227 15.6C84.8987 16.624 85.1867 17.904 85.1867 19.44C85.1867 19.5253 85.1814 19.696 85.1707 19.952C85.1707 20.208 85.1601 20.3787 85.1387 20.464H75.6347ZM80.6107 17.92C80.6001 17.5787 80.5094 17.2427 80.3387 16.912C80.1681 16.5707 79.9121 16.2933 79.5707 16.08C79.2294 15.856 78.7921 15.744 78.2587 15.744C77.7254 15.744 77.2721 15.8507 76.8987 16.064C76.5361 16.2667 76.2587 16.5333 76.0667 16.864C75.8747 17.1947 75.7681 17.5467 75.7467 17.92H80.6107ZM95.7643 26H90.8843V3.984H95.7643V26ZM112.1 14.192H122.868V15.536C122.868 17.0507 122.612 18.464 122.1 19.776C121.599 21.088 120.879 22.24 119.94 23.232C119.002 24.224 117.882 24.9973 116.58 25.552C115.279 26.1067 113.839 26.384 112.26 26.384C110.628 26.384 109.146 26.1067 107.812 25.552C106.49 24.9867 105.348 24.2027 104.388 23.2C103.428 22.1973 102.692 21.0347 102.18 19.712C101.668 18.3787 101.412 16.9493 101.412 15.424C101.412 13.9093 101.668 12.4907 102.18 11.168C102.692 9.83467 103.428 8.672 104.388 7.68C105.348 6.67733 106.49 5.89867 107.812 5.344C109.146 4.77867 110.628 4.496 112.26 4.496C113.594 4.496 114.767 4.64 115.78 4.928C116.804 5.216 117.684 5.6 118.42 6.08C119.156 6.56 119.78 7.088 120.292 7.664C120.804 8.22933 121.231 8.784 121.572 9.328L117.028 11.472C116.591 10.8 115.994 10.2133 115.236 9.712C114.49 9.21067 113.498 8.96 112.26 8.96C111.396 8.96 110.602 9.13067 109.876 9.472C109.162 9.81333 108.543 10.2827 108.02 10.88C107.498 11.4667 107.092 12.1547 106.804 12.944C106.527 13.7227 106.388 14.5493 106.388 15.424C106.388 16.3093 106.527 17.1413 106.804 17.92C107.092 18.6987 107.498 19.3867 108.02 19.984C108.543 20.5813 109.162 21.0507 109.876 21.392C110.602 21.7227 111.396 21.888 112.26 21.888C113.018 21.888 113.706 21.792 114.324 21.6C114.943 21.408 115.476 21.1307 115.924 20.768C116.383 20.4053 116.74 19.9787 116.996 19.488C117.263 18.9867 117.423 18.4373 117.476 17.84H112.1V14.192ZM128.991 26V12.864H133.855V26H128.991ZM131.487 10.16C130.719 10.16 130.069 9.89333 129.535 9.36C129.002 8.816 128.735 8.17067 128.735 7.424C128.735 6.67733 129.002 6.032 129.535 5.488C130.079 4.93333 130.73 4.656 131.487 4.656C131.989 4.656 132.447 4.784 132.863 5.04C133.279 5.28533 133.615 5.616 133.871 6.032C134.127 6.448 134.255 6.912 134.255 7.424C134.255 8.17067 133.983 8.816 133.439 9.36C132.895 9.89333 132.245 10.16 131.487 10.16ZM144.855 26H139.991V12.864H144.855V14.896H144.775C144.86 14.6507 145.068 14.3413 145.399 13.968C145.729 13.584 146.193 13.2427 146.791 12.944C147.388 12.6347 148.119 12.48 148.983 12.48C149.591 12.48 150.151 12.576 150.663 12.768C151.175 12.9493 151.548 13.1253 151.783 13.296L149.895 17.248C149.745 17.0667 149.479 16.88 149.095 16.688C148.721 16.4853 148.252 16.384 147.687 16.384C147.036 16.384 146.497 16.5493 146.071 16.88C145.655 17.2107 145.345 17.6107 145.143 18.08C144.951 18.5493 144.855 18.992 144.855 19.408V26ZM161.158 26H156.278V3.984H161.158V26ZM173.382 12.48C174.246 12.48 175.035 12.5547 175.75 12.704C176.465 12.8427 177.062 13.0027 177.542 13.184C178.033 13.3653 178.347 13.5147 178.486 13.632L176.902 16.496C176.699 16.3467 176.321 16.1547 175.766 15.92C175.222 15.6853 174.614 15.568 173.942 15.568C173.43 15.568 172.998 15.648 172.646 15.808C172.294 15.9573 172.118 16.1973 172.118 16.528C172.118 16.8587 172.31 17.1253 172.694 17.328C173.089 17.52 173.654 17.6907 174.39 17.84C175.03 17.968 175.681 18.1707 176.342 18.448C177.003 18.7253 177.553 19.136 177.99 19.68C178.438 20.2133 178.662 20.928 178.662 21.824C178.662 22.7413 178.465 23.4987 178.07 24.096C177.675 24.6933 177.153 25.1573 176.502 25.488C175.851 25.8187 175.147 26.048 174.39 26.176C173.633 26.3147 172.897 26.384 172.182 26.384C171.179 26.384 170.305 26.2933 169.558 26.112C168.822 25.9307 168.225 25.7227 167.766 25.488C167.307 25.2533 166.987 25.0667 166.806 24.928L168.374 21.728C168.651 21.9627 169.105 22.2293 169.734 22.528C170.363 22.816 171.03 22.96 171.734 22.96C172.417 22.96 172.945 22.8587 173.318 22.656C173.691 22.4533 173.878 22.1867 173.878 21.856C173.878 21.5893 173.787 21.376 173.606 21.216C173.425 21.056 173.169 20.9173 172.838 20.8C172.507 20.6827 172.107 20.576 171.638 20.48C171.211 20.3947 170.758 20.2613 170.278 20.08C169.798 19.8987 169.345 19.6533 168.918 19.344C168.491 19.024 168.145 18.624 167.878 18.144C167.611 17.664 167.478 17.0827 167.478 16.4C167.478 15.5253 167.761 14.8 168.326 14.224C168.891 13.648 169.622 13.216 170.518 12.928C171.414 12.6293 172.369 12.48 173.382 12.48Z" fill="#2B0417"/>
<mask id="path-2-inside-1_128_160" fill="white">
<path d="M186 16C188.761 16 191 18.2386 191 21C191 23.7614 188.761 26 186 26C185.543 26 185.1 25.9373 184.679 25.8223C184.689 25.7827 184.699 25.743 184.711 25.7041C184.722 25.7071 184.733 25.7109 184.744 25.7109H185.791C186.892 25.7109 187.84 25.4193 188.533 24.7256C189.226 24.0328 189.648 22.9561 189.735 21.4258V20.7246C189.735 20.6557 189.679 20.5997 189.61 20.5996H188.217C186.638 20.5996 185.563 20.9505 184.881 21.542C184.196 22.1361 183.927 22.9566 183.925 23.8496L183.926 24.001C183.935 24.3585 184.005 24.9283 184.508 25.5127C184.483 25.5904 184.459 25.6692 184.438 25.749C182.442 25.0927 181 23.2155 181 21C181 18.2386 183.239 16 186 16ZM189.485 20.8496V21.4189C189.399 22.9097 188.989 23.9156 188.356 24.5488C187.724 25.1816 186.849 25.4609 185.791 25.4609H184.799C184.797 25.4588 184.795 25.4562 184.793 25.4541C184.899 25.1607 185.032 24.8865 185.2 24.6348C185.576 24.0706 186.121 23.608 186.883 23.2695C186.946 23.2415 186.974 23.1676 186.946 23.1045C186.918 23.0416 186.844 23.013 186.781 23.041C185.981 23.3968 185.397 23.8888 184.992 24.4961C184.838 24.7278 184.709 24.9755 184.605 25.2373C184.299 24.835 184.21 24.451 184.185 24.1572L184.175 23.8496C184.177 23.007 184.429 22.2646 185.045 21.7305C185.664 21.1936 186.67 20.8496 188.217 20.8496H189.485Z"/>
</mask>
<path d="M186 16C188.761 16 191 18.2386 191 21C191 23.7614 188.761 26 186 26C185.543 26 185.1 25.9373 184.679 25.8223C184.689 25.7827 184.699 25.743 184.711 25.7041C184.722 25.7071 184.733 25.7109 184.744 25.7109H185.791C186.892 25.7109 187.84 25.4193 188.533 24.7256C189.226 24.0328 189.648 22.9561 189.735 21.4258V20.7246C189.735 20.6557 189.679 20.5997 189.61 20.5996H188.217C186.638 20.5996 185.563 20.9505 184.881 21.542C184.196 22.1361 183.927 22.9566 183.925 23.8496L183.926 24.001C183.935 24.3585 184.005 24.9283 184.508 25.5127C184.483 25.5904 184.459 25.6692 184.438 25.749C182.442 25.0927 181 23.2155 181 21C181 18.2386 183.239 16 186 16ZM189.485 20.8496V21.4189C189.399 22.9097 188.989 23.9156 188.356 24.5488C187.724 25.1816 186.849 25.4609 185.791 25.4609H184.799C184.797 25.4588 184.795 25.4562 184.793 25.4541C184.899 25.1607 185.032 24.8865 185.2 24.6348C185.576 24.0706 186.121 23.608 186.883 23.2695C186.946 23.2415 186.974 23.1676 186.946 23.1045C186.918 23.0416 186.844 23.013 186.781 23.041C185.981 23.3968 185.397 23.8888 184.992 24.4961C184.838 24.7278 184.709 24.9755 184.605 25.2373C184.299 24.835 184.21 24.451 184.185 24.1572L184.175 23.8496C184.177 23.007 184.429 22.2646 185.045 21.7305C185.664 21.1936 186.67 20.8496 188.217 20.8496H189.485Z" fill="#820E45"/>
<path d="M184.679 25.8223L184.437 25.7577L184.373 25.9979L184.613 26.0634L184.679 25.8223ZM184.711 25.7041L184.779 25.4634L184.541 25.3965L184.471 25.6335L184.711 25.7041ZM184.744 25.7109L184.743 25.9609H184.744V25.7109ZM185.791 25.7109V25.9609H185.791L185.791 25.7109ZM188.533 24.7256L188.71 24.9024L188.71 24.9023L188.533 24.7256ZM189.735 21.4258L189.985 21.4401L189.985 21.4329V21.4258H189.735ZM189.735 20.7246H189.985V20.7242L189.735 20.7246ZM189.61 20.5996L189.611 20.3496H189.61V20.5996ZM188.217 20.5996V20.3496H188.217L188.217 20.5996ZM184.881 21.542L184.717 21.3531L184.717 21.3532L184.881 21.542ZM183.925 23.8496L183.675 23.8489L183.675 23.8512L183.925 23.8496ZM183.926 24.001L183.676 24.0026L183.676 24.0075L183.926 24.001ZM184.508 25.5127L184.746 25.5897L184.789 25.4561L184.697 25.3497L184.508 25.5127ZM184.438 25.749L184.359 25.9865L184.61 26.069L184.679 25.814L184.438 25.749ZM189.485 20.8496H189.735V20.5996H189.485V20.8496ZM189.485 21.4189L189.735 21.4335L189.735 21.4262V21.4189H189.485ZM188.356 24.5488L188.533 24.7256L188.533 24.7256L188.356 24.5488ZM185.791 25.4609V25.7109H185.791L185.791 25.4609ZM184.799 25.4609L184.617 25.6324L184.691 25.7109H184.799V25.4609ZM184.793 25.4541L184.558 25.3693L184.505 25.5152L184.612 25.6271L184.793 25.4541ZM185.2 24.6348L184.992 24.4961L184.992 24.4961L185.2 24.6348ZM186.883 23.2695L186.781 23.0411L186.781 23.0411L186.883 23.2695ZM186.946 23.1045L187.175 23.003L187.174 23.0023L186.946 23.1045ZM186.781 23.041L186.68 22.8126L186.68 22.8126L186.781 23.041ZM184.992 24.4961L184.784 24.3574L184.784 24.3574L184.992 24.4961ZM184.605 25.2373L184.407 25.3887L184.675 25.7408L184.838 25.3296L184.605 25.2373ZM184.185 24.1572L183.934 24.1652L183.935 24.1787L184.185 24.1572ZM184.175 23.8496L183.925 23.8489L183.925 23.8575L184.175 23.8496ZM185.045 21.7305L184.881 21.5416L184.881 21.5416L185.045 21.7305ZM188.217 20.8496V20.5996H188.217L188.217 20.8496ZM186 16V16.25C188.623 16.25 190.75 18.3766 190.75 21H191H191.25C191.25 18.1005 188.899 15.75 186 15.75V16ZM191 21H190.75C190.75 23.6234 188.623 25.75 186 25.75V26V26.25C188.899 26.25 191.25 23.8995 191.25 21H191ZM186 26V25.75C185.565 25.75 185.145 25.6905 184.745 25.5811L184.679 25.8223L184.613 26.0634C185.055 26.1842 185.52 26.25 186 26.25V26ZM184.679 25.8223L184.92 25.8868C184.932 25.844 184.94 25.8097 184.951 25.7748L184.711 25.7041L184.471 25.6335C184.458 25.6764 184.447 25.7214 184.437 25.7577L184.679 25.8223ZM184.711 25.7041L184.643 25.9448C184.647 25.9457 184.643 25.9448 184.65 25.9468C184.655 25.948 184.661 25.9499 184.669 25.9518C184.685 25.9555 184.711 25.9608 184.743 25.9609L184.744 25.7109L184.746 25.4609C184.766 25.4611 184.781 25.4644 184.785 25.4655C184.788 25.4661 184.789 25.4664 184.788 25.466C184.787 25.4658 184.786 25.4656 184.785 25.4651C184.783 25.4647 184.781 25.4641 184.779 25.4634L184.711 25.7041ZM184.744 25.7109V25.9609H185.791V25.7109V25.4609H184.744V25.7109ZM185.791 25.7109L185.791 25.9609C186.935 25.9609 187.955 25.6571 188.71 24.9024L188.533 24.7256L188.356 24.5488C187.724 25.1816 186.849 25.4609 185.791 25.4609L185.791 25.7109ZM188.533 24.7256L188.71 24.9023C189.461 24.1509 189.895 23.0062 189.985 21.4401L189.735 21.4258L189.486 21.4115C189.4 22.9061 188.99 23.9146 188.356 24.5488L188.533 24.7256ZM189.735 21.4258H189.985V20.7246H189.735H189.485V21.4258H189.735ZM189.735 20.7246L189.985 20.7242C189.985 20.5177 189.818 20.3498 189.611 20.3496L189.61 20.5996L189.61 20.8496C189.541 20.8495 189.485 20.7937 189.485 20.725L189.735 20.7246ZM189.61 20.5996V20.3496H188.217V20.5996V20.8496H189.61V20.5996ZM188.217 20.5996L188.217 20.3496C186.606 20.3496 185.462 20.707 184.717 21.3531L184.881 21.542L185.045 21.7308C185.664 21.1939 186.67 20.8496 188.217 20.8496L188.217 20.5996ZM184.881 21.542L184.717 21.3532C183.963 22.0073 183.677 22.9055 183.675 23.8489L183.925 23.8496L184.175 23.8503C184.177 23.0076 184.429 22.265 185.045 21.7308L184.881 21.542ZM183.925 23.8496L183.675 23.8512L183.676 24.0026L183.926 24.001L184.176 23.9994L184.175 23.848L183.925 23.8496ZM183.926 24.001L183.676 24.0075C183.686 24.3977 183.765 25.0319 184.318 25.6757L184.508 25.5127L184.697 25.3497C184.246 24.8247 184.184 24.3193 184.176 23.9945L183.926 24.001ZM184.508 25.5127L184.27 25.4357C184.244 25.5167 184.219 25.5996 184.196 25.684L184.438 25.749L184.679 25.814C184.699 25.7388 184.722 25.664 184.746 25.5897L184.508 25.5127ZM184.438 25.749L184.516 25.5115C182.619 24.8879 181.25 23.1042 181.25 21H181H180.75C180.75 23.3269 182.264 25.2975 184.359 25.9865L184.438 25.749ZM181 21H181.25C181.25 18.3766 183.377 16.25 186 16.25V16V15.75C183.101 15.75 180.75 18.1005 180.75 21H181ZM189.485 20.8496H189.235V21.4189H189.485H189.735V20.8496H189.485ZM189.485 21.4189L189.236 21.4044C189.151 22.8594 188.754 23.7973 188.18 24.3721L188.356 24.5488L188.533 24.7256C189.225 24.0339 189.646 22.9601 189.735 21.4335L189.485 21.4189ZM188.356 24.5488L188.18 24.3721C187.608 24.9439 186.805 25.2109 185.791 25.2109L185.791 25.4609L185.791 25.7109C186.892 25.7109 187.84 25.4193 188.533 24.7256L188.356 24.5488ZM185.791 25.4609V25.2109H184.799V25.4609V25.7109H185.791V25.4609ZM184.799 25.4609L184.981 25.2895C184.985 25.2935 184.987 25.2967 184.988 25.2981C184.99 25.2994 184.99 25.3005 184.99 25.2995C184.989 25.299 184.987 25.2966 184.985 25.2938C184.982 25.291 184.979 25.2864 184.973 25.2811L184.793 25.4541L184.612 25.6271C184.608 25.6228 184.605 25.6194 184.604 25.6177C184.603 25.6161 184.602 25.6148 184.602 25.6156C184.602 25.6157 184.604 25.618 184.606 25.6204C184.608 25.623 184.612 25.6273 184.617 25.6324L184.799 25.4609ZM184.793 25.4541L185.028 25.5389C185.128 25.262 185.253 25.0063 185.408 24.7734L185.2 24.6348L184.992 24.4961C184.812 24.7667 184.67 25.0594 184.558 25.3693L184.793 25.4541ZM185.2 24.6348L185.408 24.7735C185.756 24.2525 186.262 23.8192 186.984 23.498L186.883 23.2695L186.781 23.0411C185.981 23.3969 185.397 23.8887 184.992 24.4961L185.2 24.6348ZM186.883 23.2695L186.984 23.498C187.174 23.4139 187.259 23.1922 187.175 23.003L186.946 23.1045L186.718 23.206C186.69 23.1429 186.718 23.0691 186.781 23.0411L186.883 23.2695ZM186.946 23.1045L187.174 23.0023C187.09 22.8146 186.87 22.7282 186.68 22.8126L186.781 23.041L186.883 23.2695C186.819 23.2978 186.746 23.2687 186.718 23.2067L186.946 23.1045ZM186.781 23.041L186.68 22.8126C185.84 23.1857 185.218 23.7069 184.784 24.3574L184.992 24.4961L185.2 24.6348C185.576 24.0707 186.121 23.608 186.883 23.2695L186.781 23.041ZM184.992 24.4961L184.784 24.3574C184.619 24.6045 184.483 24.8679 184.373 25.145L184.605 25.2373L184.838 25.3296C184.936 25.0832 185.056 24.8511 185.2 24.6348L184.992 24.4961ZM184.605 25.2373L184.804 25.0859C184.533 24.7299 184.456 24.3944 184.434 24.1358L184.185 24.1572L183.935 24.1787C183.964 24.5075 184.065 24.9401 184.407 25.3887L184.605 25.2373ZM184.185 24.1572L184.434 24.1493L184.425 23.8417L184.175 23.8496L183.925 23.8575L183.935 24.1652L184.185 24.1572ZM184.175 23.8496L184.425 23.8503C184.427 23.0583 184.662 22.3936 185.209 21.9193L185.045 21.7305L184.881 21.5416C184.196 22.1357 183.927 22.9558 183.925 23.8489L184.175 23.8496ZM185.045 21.7305L185.209 21.9193C185.765 21.437 186.703 21.0996 188.217 21.0996L188.217 20.8496L188.217 20.5996C186.638 20.5996 185.563 20.9501 184.881 21.5416L185.045 21.7305ZM188.217 20.8496V21.0996H189.485V20.8496V20.5996H188.217V20.8496Z" fill="white" mask="url(#path-2-inside-1_128_160)"/>
<path d="M0.22793 34.4H2.09793C2.51126 34.4 2.88293 34.4683 3.21293 34.605C3.54626 34.7383 3.81126 34.9483 4.00793 35.235C4.2046 35.5217 4.30293 35.895 4.30293 36.355C4.30293 36.8117 4.2046 37.19 4.00793 37.49C3.81126 37.79 3.54626 38.015 3.21293 38.165C2.88293 38.3117 2.51126 38.385 2.09793 38.385H1.08293V41H0.22793V34.4ZM1.08293 37.67H1.86293C2.14626 37.67 2.40293 37.6283 2.63293 37.545C2.86626 37.4617 3.05126 37.325 3.18793 37.135C3.32793 36.945 3.39793 36.69 3.39793 36.37C3.39793 36.0467 3.32793 35.795 3.18793 35.615C3.05126 35.4317 2.86626 35.3033 2.63293 35.23C2.40293 35.1533 2.14626 35.115 1.86293 35.115H1.08293V37.67ZM6.99816 41H6.13316V36.895H6.99816V37.605H6.97316C6.98983 37.5183 7.0515 37.41 7.15816 37.28C7.26483 37.15 7.4115 37.0333 7.59816 36.93C7.78483 36.8267 8.00816 36.775 8.26816 36.775C8.45816 36.775 8.62483 36.8017 8.76816 36.855C8.91483 36.905 9.01816 36.955 9.07816 37.005L8.72316 37.725C8.6765 37.6783 8.59483 37.6317 8.47816 37.585C8.3615 37.535 8.2165 37.51 8.04316 37.51C7.82316 37.51 7.63483 37.5783 7.47816 37.715C7.3215 37.8517 7.2015 38.0167 7.11816 38.21C7.03816 38.4 6.99816 38.5767 6.99816 38.74V41ZM11.0964 39.125C11.0997 39.3717 11.153 39.5967 11.2564 39.8C11.3597 40.0033 11.513 40.165 11.7164 40.285C11.923 40.405 12.1764 40.465 12.4764 40.465C12.7297 40.465 12.9447 40.4283 13.1214 40.355C13.3014 40.2783 13.448 40.1883 13.5614 40.085C13.6747 39.9783 13.7564 39.8833 13.8064 39.8L14.2314 40.325C14.1214 40.485 13.9864 40.625 13.8264 40.745C13.6697 40.865 13.478 40.9567 13.2514 41.02C13.0247 41.0867 12.748 41.12 12.4214 41.12C11.9814 41.12 11.5997 41.0267 11.2764 40.84C10.9564 40.65 10.7097 40.3883 10.5364 40.055C10.363 39.7183 10.2764 39.3333 10.2764 38.9C10.2764 38.5 10.358 38.14 10.5214 37.82C10.6847 37.4967 10.9214 37.2417 11.2314 37.055C11.5447 36.8683 11.9214 36.775 12.3614 36.775C12.7647 36.775 13.1147 36.86 13.4114 37.03C13.7114 37.1967 13.943 37.4333 14.1064 37.74C14.273 38.0467 14.3564 38.4133 14.3564 38.84C14.3564 38.8667 14.3547 38.915 14.3514 38.985C14.348 39.0517 14.3447 39.0983 14.3414 39.125H11.0964ZM13.5264 38.47C13.523 38.3333 13.483 38.1833 13.4064 38.02C13.333 37.8567 13.213 37.7167 13.0464 37.6C12.8797 37.4833 12.6547 37.425 12.3714 37.425C12.078 37.425 11.8414 37.4817 11.6614 37.595C11.4847 37.7083 11.3547 37.8467 11.2714 38.01C11.188 38.17 11.1397 38.3233 11.1264 38.47H13.5264ZM21.242 36.775C21.5453 36.775 21.8053 36.8417 22.022 36.975C22.2387 37.105 22.4037 37.305 22.517 37.575C22.6337 37.845 22.692 38.19 22.692 38.61V41H21.832V38.785C21.832 38.3417 21.7703 38.0083 21.647 37.785C21.5237 37.5617 21.2987 37.45 20.972 37.45C20.7987 37.45 20.632 37.4983 20.472 37.595C20.3153 37.6883 20.1853 37.8333 20.082 38.03C19.982 38.2267 19.932 38.4783 19.932 38.785V41H19.122V38.785C19.122 38.3417 19.0453 38.0083 18.892 37.785C18.7387 37.5617 18.5237 37.45 18.247 37.45C18.0703 37.45 17.9037 37.4967 17.747 37.59C17.5937 37.68 17.4687 37.8233 17.372 38.02C17.2753 38.2167 17.227 38.4717 17.227 38.785V41H16.362V36.895H17.227V37.525C17.2637 37.4217 17.342 37.3117 17.462 37.195C17.5853 37.0783 17.742 36.98 17.932 36.9C18.1253 36.8167 18.3403 36.775 18.577 36.775C18.8237 36.775 19.0303 36.825 19.197 36.925C19.3637 37.025 19.4953 37.1483 19.592 37.295C19.6887 37.4383 19.7553 37.5767 19.792 37.71C19.8387 37.5667 19.9287 37.4233 20.062 37.28C20.1953 37.1333 20.3637 37.0133 20.567 36.92C20.7703 36.8233 20.9953 36.775 21.242 36.775ZM24.9901 41V36.895H25.8601V41H24.9901ZM25.4351 35.49C25.2785 35.49 25.1435 35.435 25.0301 35.325C24.9201 35.2117 24.8651 35.0767 24.8651 34.92C24.8651 34.7633 24.9201 34.6283 25.0301 34.515C25.1435 34.4017 25.2785 34.345 25.4351 34.345C25.5385 34.345 25.6335 34.3717 25.7201 34.425C25.8101 34.4783 25.8818 34.5483 25.9351 34.635C25.9885 34.7183 26.0151 34.8133 26.0151 34.92C26.0151 35.0767 25.9585 35.2117 25.8451 35.325C25.7318 35.435 25.5951 35.49 25.4351 35.49ZM29.005 38.965C29.005 39.395 29.0967 39.7383 29.28 39.995C29.4667 40.2483 29.7517 40.375 30.135 40.375C30.5217 40.375 30.8067 40.2483 30.99 39.995C31.1734 39.7383 31.265 39.395 31.265 38.965V36.895H32.125V39.085C32.125 39.485 32.0467 39.8383 31.89 40.145C31.7367 40.4517 31.5117 40.6917 31.215 40.865C30.9217 41.035 30.5617 41.12 30.135 41.12C29.7117 41.12 29.3517 41.035 29.055 40.865C28.7617 40.6917 28.5367 40.4517 28.38 40.145C28.2267 39.8383 28.15 39.485 28.15 39.085V36.895H29.005V38.965ZM39.2322 36.775C39.5356 36.775 39.7956 36.8417 40.0122 36.975C40.2289 37.105 40.3939 37.305 40.5072 37.575C40.6239 37.845 40.6822 38.19 40.6822 38.61V41H39.8222V38.785C39.8222 38.3417 39.7606 38.0083 39.6372 37.785C39.5139 37.5617 39.2889 37.45 38.9622 37.45C38.7889 37.45 38.6222 37.4983 38.4622 37.595C38.3056 37.6883 38.1756 37.8333 38.0722 38.03C37.9722 38.2267 37.9222 38.4783 37.9222 38.785V41H37.1122V38.785C37.1122 38.3417 37.0356 38.0083 36.8822 37.785C36.7289 37.5617 36.5139 37.45 36.2372 37.45C36.0606 37.45 35.8939 37.4967 35.7372 37.59C35.5839 37.68 35.4589 37.8233 35.3622 38.02C35.2656 38.2167 35.2172 38.4717 35.2172 38.785V41H34.3522V36.895H35.2172V37.525C35.2539 37.4217 35.3322 37.3117 35.4522 37.195C35.5756 37.0783 35.7322 36.98 35.9222 36.9C36.1156 36.8167 36.3306 36.775 36.5672 36.775C36.8139 36.775 37.0206 36.825 37.1872 36.925C37.3539 37.025 37.4856 37.1483 37.5822 37.295C37.6789 37.4383 37.7456 37.5767 37.7822 37.71C37.8289 37.5667 37.9189 37.4233 38.0522 37.28C38.1856 37.1333 38.3539 37.0133 38.5572 36.92C38.7606 36.8233 38.9856 36.775 39.2322 36.775ZM51.3006 36.775C51.6039 36.775 51.8639 36.8417 52.0806 36.975C52.2973 37.105 52.4623 37.305 52.5756 37.575C52.6923 37.845 52.7506 38.19 52.7506 38.61V41H51.8906V38.785C51.8906 38.3417 51.8289 38.0083 51.7056 37.785C51.5823 37.5617 51.3573 37.45 51.0306 37.45C50.8573 37.45 50.6906 37.4983 50.5306 37.595C50.3739 37.6883 50.2439 37.8333 50.1406 38.03C50.0406 38.2267 49.9906 38.4783 49.9906 38.785V41H49.1806V38.785C49.1806 38.3417 49.1039 38.0083 48.9506 37.785C48.7973 37.5617 48.5823 37.45 48.3056 37.45C48.1289 37.45 47.9623 37.4967 47.8056 37.59C47.6523 37.68 47.5273 37.8233 47.4306 38.02C47.3339 38.2167 47.2856 38.4717 47.2856 38.785V41H46.4206V36.895H47.2856V37.525C47.3223 37.4217 47.4006 37.3117 47.5206 37.195C47.6439 37.0783 47.8006 36.98 47.9906 36.9C48.1839 36.8167 48.3989 36.775 48.6356 36.775C48.8823 36.775 49.0889 36.825 49.2556 36.925C49.4223 37.025 49.5539 37.1483 49.6506 37.295C49.7473 37.4383 49.8139 37.5767 49.8506 37.71C49.8973 37.5667 49.9873 37.4233 50.1206 37.28C50.2539 37.1333 50.4223 37.0133 50.6256 36.92C50.8289 36.8233 51.0539 36.775 51.3006 36.775ZM56.8537 41.12C56.4304 41.12 56.0537 41.025 55.7237 40.835C55.397 40.645 55.1404 40.3883 54.9537 40.065C54.767 39.7383 54.6737 39.37 54.6737 38.96C54.6737 38.55 54.767 38.18 54.9537 37.85C55.1404 37.52 55.397 37.2583 55.7237 37.065C56.0537 36.8717 56.4304 36.775 56.8537 36.775C57.2737 36.775 57.6454 36.8717 57.9687 37.065C58.2954 37.2583 58.5504 37.52 58.7337 37.85C58.917 38.18 59.0087 38.55 59.0087 38.96C59.0087 39.37 58.917 39.7383 58.7337 40.065C58.5504 40.3883 58.2954 40.645 57.9687 40.835C57.6454 41.025 57.2737 41.12 56.8537 41.12ZM56.8537 40.375C57.1204 40.375 57.352 40.3133 57.5487 40.19C57.7487 40.0667 57.9037 39.8983 58.0137 39.685C58.1237 39.4683 58.1787 39.225 58.1787 38.955C58.1787 38.685 58.1237 38.4417 58.0137 38.225C57.9037 38.0083 57.7487 37.8367 57.5487 37.71C57.352 37.5833 57.1204 37.52 56.8537 37.52C56.5837 37.52 56.3487 37.5833 56.1487 37.71C55.9487 37.8367 55.792 38.0083 55.6787 38.225C55.5687 38.4417 55.5137 38.685 55.5137 38.955C55.5137 39.225 55.5687 39.4683 55.6787 39.685C55.792 39.8983 55.9487 40.0667 56.1487 40.19C56.3487 40.3133 56.5837 40.375 56.8537 40.375ZM62.7832 41.12C62.4066 41.12 62.0682 41.03 61.7682 40.85C61.4716 40.67 61.2366 40.4183 61.0632 40.095C60.8932 39.7683 60.8082 39.3867 60.8082 38.95C60.8082 38.5133 60.8932 38.1333 61.0632 37.81C61.2366 37.4833 61.4716 37.23 61.7682 37.05C62.0682 36.8667 62.4066 36.775 62.7832 36.775C63.0866 36.775 63.3532 36.8283 63.5832 36.935C63.8132 37.0383 63.9966 37.16 64.1332 37.3C64.2699 37.44 64.3482 37.5617 64.3682 37.665V34.12H65.2432V41H64.3832V40.2C64.3466 40.3133 64.2549 40.4417 64.1082 40.585C63.9649 40.7283 63.7799 40.8533 63.5532 40.96C63.3266 41.0667 63.0699 41.12 62.7832 41.12ZM62.9832 40.4C63.2366 40.4 63.4682 40.34 63.6782 40.22C63.8882 40.1 64.0549 39.9317 64.1782 39.715C64.3049 39.495 64.3682 39.24 64.3682 38.95C64.3682 38.66 64.3049 38.4067 64.1782 38.19C64.0549 37.97 63.8882 37.8 63.6782 37.68C63.4682 37.5567 63.2366 37.495 62.9832 37.495C62.7499 37.495 62.5332 37.555 62.3332 37.675C62.1332 37.795 61.9716 37.9633 61.8482 38.18C61.7282 38.3967 61.6682 38.6533 61.6682 38.95C61.6682 39.2467 61.7282 39.5033 61.8482 39.72C61.9716 39.9367 62.1332 40.105 62.3332 40.225C62.5332 40.3417 62.7499 40.4 62.9832 40.4ZM67.7624 39.125C67.7657 39.3717 67.819 39.5967 67.9224 39.8C68.0257 40.0033 68.179 40.165 68.3824 40.285C68.589 40.405 68.8424 40.465 69.1424 40.465C69.3957 40.465 69.6107 40.4283 69.7874 40.355C69.9674 40.2783 70.114 40.1883 70.2274 40.085C70.3407 39.9783 70.4224 39.8833 70.4724 39.8L70.8974 40.325C70.7874 40.485 70.6524 40.625 70.4924 40.745C70.3357 40.865 70.144 40.9567 69.9174 41.02C69.6907 41.0867 69.414 41.12 69.0874 41.12C68.6474 41.12 68.2657 41.0267 67.9424 40.84C67.6224 40.65 67.3757 40.3883 67.2024 40.055C67.029 39.7183 66.9424 39.3333 66.9424 38.9C66.9424 38.5 67.024 38.14 67.1874 37.82C67.3507 37.4967 67.5874 37.2417 67.8974 37.055C68.2107 36.8683 68.5874 36.775 69.0274 36.775C69.4307 36.775 69.7807 36.86 70.0774 37.03C70.3774 37.1967 70.609 37.4333 70.7724 37.74C70.939 38.0467 71.0224 38.4133 71.0224 38.84C71.0224 38.8667 71.0207 38.915 71.0174 38.985C71.014 39.0517 71.0107 39.0983 71.0074 39.125H67.7624ZM70.1924 38.47C70.189 38.3333 70.149 38.1833 70.0724 38.02C69.999 37.8567 69.879 37.7167 69.7124 37.6C69.5457 37.4833 69.3207 37.425 69.0374 37.425C68.744 37.425 68.5074 37.4817 68.3274 37.595C68.1507 37.7083 68.0207 37.8467 67.9374 38.01C67.854 38.17 67.8057 38.3233 67.7924 38.47H70.1924ZM73.888 41H73.013V34.12H73.888V41ZM76.2362 41V36.895H77.1062V41H76.2362ZM76.6812 35.49C76.5245 35.49 76.3895 35.435 76.2762 35.325C76.1662 35.2117 76.1112 35.0767 76.1112 34.92C76.1112 34.7633 76.1662 34.6283 76.2762 34.515C76.3895 34.4017 76.5245 34.345 76.6812 34.345C76.7845 34.345 76.8795 34.3717 76.9662 34.425C77.0562 34.4783 77.1279 34.5483 77.1812 34.635C77.2345 34.7183 77.2612 34.8133 77.2612 34.92C77.2612 35.0767 77.2045 35.2117 77.0912 35.325C76.9779 35.435 76.8412 35.49 76.6812 35.49ZM81.7311 36.775C82.0011 36.775 82.2628 36.8317 82.5161 36.945C82.7728 37.0583 82.9828 37.2383 83.1461 37.485C83.3128 37.7283 83.3961 38.0467 83.3961 38.44V41H82.5161V38.61C82.5161 38.2033 82.4211 37.9083 82.2311 37.725C82.0411 37.5383 81.7961 37.445 81.4961 37.445C81.2995 37.445 81.1095 37.5017 80.9261 37.615C80.7461 37.725 80.5978 37.8783 80.4811 38.075C80.3645 38.2683 80.3061 38.4883 80.3061 38.735V41H79.4361V36.895H80.3061V37.625C80.3361 37.5117 80.4178 37.3883 80.5511 37.255C80.6845 37.1217 80.8545 37.0083 81.0611 36.915C81.2678 36.8217 81.4911 36.775 81.7311 36.775ZM87.4938 43.195C87.1705 43.195 86.8771 43.1617 86.6138 43.095C86.3538 43.0283 86.1255 42.9333 85.9288 42.81C85.7355 42.69 85.5805 42.5483 85.4638 42.385L86.0338 41.84C86.0971 41.9267 86.1821 42.0183 86.2888 42.115C86.3988 42.215 86.5471 42.3 86.7338 42.37C86.9205 42.44 87.1638 42.475 87.4638 42.475C87.7571 42.475 88.0055 42.4117 88.2088 42.285C88.4121 42.1617 88.5671 41.9933 88.6738 41.78C88.7805 41.5667 88.8338 41.3267 88.8338 41.06V40.925H89.6838V41.115C89.6838 41.5683 89.5855 41.9483 89.3888 42.255C89.1955 42.565 88.9338 42.7983 88.6038 42.955C88.2738 43.115 87.9038 43.195 87.4938 43.195ZM88.8338 41V40.2C88.8071 40.2833 88.7288 40.3983 88.5988 40.545C88.4721 40.6917 88.2971 40.825 88.0738 40.945C87.8538 41.0617 87.5938 41.12 87.2938 41.12C86.9138 41.12 86.5688 41.03 86.2588 40.85C85.9521 40.67 85.7071 40.4183 85.5238 40.095C85.3438 39.7683 85.2538 39.3867 85.2538 38.95C85.2538 38.5133 85.3438 38.1333 85.5238 37.81C85.7071 37.4833 85.9521 37.23 86.2588 37.05C86.5688 36.8667 86.9138 36.775 87.2938 36.775C87.5905 36.775 87.8471 36.8283 88.0638 36.935C88.2838 37.0417 88.4588 37.165 88.5888 37.305C88.7221 37.445 88.8005 37.565 88.8238 37.665V36.895H89.6838V41H88.8338ZM86.1138 38.95C86.1138 39.2467 86.1788 39.5033 86.3088 39.72C86.4388 39.9367 86.6071 40.105 86.8138 40.225C87.0238 40.3417 87.2471 40.4 87.4838 40.4C87.7371 40.4 87.9638 40.34 88.1638 40.22C88.3638 40.1 88.5221 39.9317 88.6388 39.715C88.7555 39.495 88.8138 39.24 88.8138 38.95C88.8138 38.66 88.7555 38.4067 88.6388 38.19C88.5221 37.97 88.3638 37.8 88.1638 37.68C87.9638 37.5567 87.7371 37.495 87.4838 37.495C87.2471 37.495 87.0238 37.555 86.8138 37.675C86.6071 37.795 86.4388 37.9633 86.3088 38.18C86.1788 38.3967 86.1138 38.6533 86.1138 38.95ZM95.1556 39.35C95.1556 39.08 95.2073 38.8417 95.3106 38.635C95.4139 38.4283 95.5456 38.25 95.7056 38.1C95.8656 37.95 96.0339 37.825 96.2106 37.725C96.3873 37.6217 96.5506 37.54 96.7006 37.48C96.8539 37.42 96.9706 37.3767 97.0506 37.35C96.9906 37.3067 96.9123 37.235 96.8156 37.135C96.7223 37.0317 96.6289 36.9083 96.5356 36.765C96.4423 36.6217 96.3623 36.465 96.2956 36.295C96.2323 36.1217 96.2006 35.9433 96.2006 35.76C96.2006 35.4867 96.2756 35.2383 96.4256 35.015C96.5756 34.7917 96.7856 34.6133 97.0556 34.48C97.3256 34.3467 97.6406 34.28 98.0006 34.28C98.3639 34.28 98.6723 34.345 98.9256 34.475C99.1789 34.605 99.3723 34.7833 99.5056 35.01C99.6389 35.2333 99.7056 35.4867 99.7056 35.77C99.7056 36.0433 99.6456 36.2817 99.5256 36.485C99.4056 36.6883 99.2589 36.8617 99.0856 37.005C98.9156 37.145 98.7489 37.26 98.5856 37.35C98.4223 37.4367 98.2973 37.5 98.2106 37.54L99.6256 39.085C99.7056 39.005 99.8139 38.8783 99.9506 38.705C100.087 38.5283 100.222 38.3267 100.356 38.1L100.936 38.6C100.892 38.68 100.827 38.7833 100.741 38.91C100.654 39.0367 100.559 39.165 100.456 39.295C100.352 39.4217 100.257 39.525 100.171 39.605L101.491 41H100.396L99.5456 40.085C99.3723 40.2517 99.1673 40.415 98.9306 40.575C98.6973 40.7317 98.4323 40.8617 98.1356 40.965C97.8423 41.0683 97.5139 41.12 97.1506 41.12C96.7739 41.12 96.4339 41.0483 96.1306 40.905C95.8306 40.7583 95.5923 40.5533 95.4156 40.29C95.2423 40.0233 95.1556 39.71 95.1556 39.35ZM97.4906 37.885C97.4373 37.9017 97.3539 37.9317 97.2406 37.975C97.1306 38.0183 97.0089 38.0767 96.8756 38.15C96.7456 38.2233 96.6206 38.315 96.5006 38.425C96.3839 38.5317 96.2856 38.6567 96.2056 38.8C96.1289 38.94 96.0906 39.1017 96.0906 39.285C96.0906 39.515 96.1456 39.7083 96.2556 39.865C96.3656 40.0183 96.5106 40.1333 96.6906 40.21C96.8706 40.2867 97.0656 40.325 97.2756 40.325C97.5156 40.325 97.7473 40.2817 97.9706 40.195C98.1973 40.1083 98.4006 40.0033 98.5806 39.88C98.7639 39.7567 98.9089 39.6367 99.0156 39.52L97.4906 37.885ZM97.9856 34.965C97.7856 34.965 97.6139 35.005 97.4706 35.085C97.3273 35.165 97.2189 35.2667 97.1456 35.39C97.0723 35.5133 97.0356 35.64 97.0356 35.77C97.0356 35.9067 97.0689 36.0483 97.1356 36.195C97.2056 36.3383 97.2856 36.4733 97.3756 36.6C97.4689 36.7267 97.5523 36.8317 97.6256 36.915C97.7023 36.995 97.7473 37.0417 97.7606 37.055C97.8306 37.0317 97.9289 36.99 98.0556 36.93C98.1856 36.87 98.3156 36.7883 98.4456 36.685C98.5789 36.5817 98.6923 36.455 98.7856 36.305C98.8789 36.1517 98.9256 35.9733 98.9256 35.77C98.9256 35.5433 98.8389 35.3533 98.6656 35.2C98.4923 35.0433 98.2656 34.965 97.9856 34.965ZM106.545 41V34.12H107.425V37.665C107.445 37.5617 107.523 37.44 107.66 37.3C107.797 37.16 107.98 37.0383 108.21 36.935C108.44 36.8283 108.705 36.775 109.005 36.775C109.388 36.775 109.728 36.8667 110.025 37.05C110.322 37.23 110.555 37.4833 110.725 37.81C110.898 38.1333 110.985 38.5133 110.985 38.95C110.985 39.3867 110.898 39.7683 110.725 40.095C110.555 40.4183 110.322 40.67 110.025 40.85C109.728 41.03 109.388 41.12 109.005 41.12C108.722 41.12 108.465 41.0667 108.235 40.96C108.008 40.8533 107.823 40.7283 107.68 40.585C107.537 40.4417 107.447 40.3133 107.41 40.2V41H106.545ZM110.12 38.95C110.12 38.6533 110.06 38.3967 109.94 38.18C109.82 37.9633 109.66 37.795 109.46 37.675C109.263 37.555 109.047 37.495 108.81 37.495C108.553 37.495 108.32 37.5567 108.11 37.68C107.9 37.8 107.733 37.97 107.61 38.19C107.487 38.4067 107.425 38.66 107.425 38.95C107.425 39.24 107.487 39.495 107.61 39.715C107.733 39.9317 107.9 40.1 108.11 40.22C108.32 40.34 108.553 40.4 108.81 40.4C109.047 40.4 109.263 40.3417 109.46 40.225C109.66 40.105 109.82 39.9367 109.94 39.72C110.06 39.5033 110.12 39.2467 110.12 38.95ZM114.709 41.12C114.286 41.12 113.909 41.025 113.579 40.835C113.253 40.645 112.996 40.3883 112.809 40.065C112.623 39.7383 112.529 39.37 112.529 38.96C112.529 38.55 112.623 38.18 112.809 37.85C112.996 37.52 113.253 37.2583 113.579 37.065C113.909 36.8717 114.286 36.775 114.709 36.775C115.129 36.775 115.501 36.8717 115.824 37.065C116.151 37.2583 116.406 37.52 116.589 37.85C116.773 38.18 116.864 38.55 116.864 38.96C116.864 39.37 116.773 39.7383 116.589 40.065C116.406 40.3883 116.151 40.645 115.824 40.835C115.501 41.025 115.129 41.12 114.709 41.12ZM114.709 40.375C114.976 40.375 115.208 40.3133 115.404 40.19C115.604 40.0667 115.759 39.8983 115.869 39.685C115.979 39.4683 116.034 39.225 116.034 38.955C116.034 38.685 115.979 38.4417 115.869 38.225C115.759 38.0083 115.604 37.8367 115.404 37.71C115.208 37.5833 114.976 37.52 114.709 37.52C114.439 37.52 114.204 37.5833 114.004 37.71C113.804 37.8367 113.648 38.0083 113.534 38.225C113.424 38.4417 113.369 38.685 113.369 38.955C113.369 39.225 113.424 39.4683 113.534 39.685C113.648 39.8983 113.804 40.0667 114.004 40.19C114.204 40.3133 114.439 40.375 114.709 40.375ZM120.729 41.12C120.305 41.12 119.929 41.025 119.599 40.835C119.272 40.645 119.015 40.3883 118.829 40.065C118.642 39.7383 118.549 39.37 118.549 38.96C118.549 38.55 118.642 38.18 118.829 37.85C119.015 37.52 119.272 37.2583 119.599 37.065C119.929 36.8717 120.305 36.775 120.729 36.775C121.149 36.775 121.52 36.8717 121.844 37.065C122.17 37.2583 122.425 37.52 122.609 37.85C122.792 38.18 122.884 38.55 122.884 38.96C122.884 39.37 122.792 39.7383 122.609 40.065C122.425 40.3883 122.17 40.645 121.844 40.835C121.52 41.025 121.149 41.12 120.729 41.12ZM120.729 40.375C120.995 40.375 121.227 40.3133 121.424 40.19C121.624 40.0667 121.779 39.8983 121.889 39.685C121.999 39.4683 122.054 39.225 122.054 38.955C122.054 38.685 121.999 38.4417 121.889 38.225C121.779 38.0083 121.624 37.8367 121.424 37.71C121.227 37.5833 120.995 37.52 120.729 37.52C120.459 37.52 120.224 37.5833 120.024 37.71C119.824 37.8367 119.667 38.0083 119.554 38.225C119.444 38.4417 119.389 38.685 119.389 38.955C119.389 39.225 119.444 39.4683 119.554 39.685C119.667 39.8983 119.824 40.0667 120.024 40.19C120.224 40.3133 120.459 40.375 120.729 40.375ZM127.358 36.895H128.408L126.288 38.85L128.548 41H127.483L125.578 39.18V41H124.708V34.12H125.578V38.52L127.358 36.895ZM130.25 41V36.895H131.12V41H130.25ZM130.695 35.49C130.538 35.49 130.403 35.435 130.29 35.325C130.18 35.2117 130.125 35.0767 130.125 34.92C130.125 34.7633 130.18 34.6283 130.29 34.515C130.403 34.4017 130.538 34.345 130.695 34.345C130.798 34.345 130.893 34.3717 130.98 34.425C131.07 34.4783 131.142 34.5483 131.195 34.635C131.248 34.7183 131.275 34.8133 131.275 34.92C131.275 35.0767 131.218 35.2117 131.105 35.325C130.992 35.435 130.855 35.49 130.695 35.49ZM135.745 36.775C136.015 36.775 136.276 36.8317 136.53 36.945C136.786 37.0583 136.996 37.2383 137.16 37.485C137.326 37.7283 137.41 38.0467 137.41 38.44V41H136.53V38.61C136.53 38.2033 136.435 37.9083 136.245 37.725C136.055 37.5383 135.81 37.445 135.51 37.445C135.313 37.445 135.123 37.5017 134.94 37.615C134.76 37.725 134.611 37.8783 134.495 38.075C134.378 38.2683 134.32 38.4883 134.32 38.735V41H133.45V36.895H134.32V37.625C134.35 37.5117 134.431 37.3883 134.565 37.255C134.698 37.1217 134.868 37.0083 135.075 36.915C135.281 36.8217 135.505 36.775 135.745 36.775ZM141.507 43.195C141.184 43.195 140.891 43.1617 140.627 43.095C140.367 43.0283 140.139 42.9333 139.942 42.81C139.749 42.69 139.594 42.5483 139.477 42.385L140.047 41.84C140.111 41.9267 140.196 42.0183 140.302 42.115C140.412 42.215 140.561 42.3 140.747 42.37C140.934 42.44 141.177 42.475 141.477 42.475C141.771 42.475 142.019 42.4117 142.222 42.285C142.426 42.1617 142.581 41.9933 142.687 41.78C142.794 41.5667 142.847 41.3267 142.847 41.06V40.925H143.697V41.115C143.697 41.5683 143.599 41.9483 143.402 42.255C143.209 42.565 142.947 42.7983 142.617 42.955C142.287 43.115 141.917 43.195 141.507 43.195ZM142.847 41V40.2C142.821 40.2833 142.742 40.3983 142.612 40.545C142.486 40.6917 142.311 40.825 142.087 40.945C141.867 41.0617 141.607 41.12 141.307 41.12C140.927 41.12 140.582 41.03 140.272 40.85C139.966 40.67 139.721 40.4183 139.537 40.095C139.357 39.7683 139.267 39.3867 139.267 38.95C139.267 38.5133 139.357 38.1333 139.537 37.81C139.721 37.4833 139.966 37.23 140.272 37.05C140.582 36.8667 140.927 36.775 141.307 36.775C141.604 36.775 141.861 36.8283 142.077 36.935C142.297 37.0417 142.472 37.165 142.602 37.305C142.736 37.445 142.814 37.565 142.837 37.665V36.895H143.697V41H142.847ZM140.127 38.95C140.127 39.2467 140.192 39.5033 140.322 39.72C140.452 39.9367 140.621 40.105 140.827 40.225C141.037 40.3417 141.261 40.4 141.497 40.4C141.751 40.4 141.977 40.34 142.177 40.22C142.377 40.1 142.536 39.9317 142.652 39.715C142.769 39.495 142.827 39.24 142.827 38.95C142.827 38.66 142.769 38.4067 142.652 38.19C142.536 37.97 142.377 37.8 142.177 37.68C141.977 37.5567 141.751 37.495 141.497 37.495C141.261 37.495 141.037 37.555 140.827 37.675C140.621 37.795 140.452 37.9633 140.322 38.18C140.192 38.3967 140.127 38.6533 140.127 38.95ZM150.269 43.08H149.404V36.895H150.284V37.665C150.314 37.5617 150.398 37.44 150.534 37.3C150.671 37.16 150.854 37.0383 151.084 36.935C151.318 36.8283 151.584 36.775 151.884 36.775C152.264 36.775 152.601 36.8667 152.894 37.05C153.191 37.23 153.423 37.4833 153.589 37.81C153.759 38.1333 153.844 38.5133 153.844 38.95C153.844 39.3867 153.758 39.7683 153.584 40.095C153.411 40.4183 153.174 40.67 152.874 40.85C152.578 41.03 152.238 41.12 151.854 41.12C151.544 41.12 151.273 41.0617 151.039 40.945C150.809 40.8283 150.628 40.6967 150.494 40.55C150.364 40.4033 150.289 40.2867 150.269 40.2V43.08ZM152.984 38.95C152.984 38.6533 152.923 38.3967 152.799 38.18C152.679 37.9633 152.519 37.795 152.319 37.675C152.119 37.555 151.903 37.495 151.669 37.495C151.413 37.495 151.179 37.5567 150.969 37.68C150.759 37.8 150.593 37.97 150.469 38.19C150.346 38.4067 150.284 38.66 150.284 38.95C150.284 39.24 150.346 39.495 150.469 39.715C150.593 39.9317 150.759 40.1 150.969 40.22C151.179 40.34 151.413 40.4 151.669 40.4C151.903 40.4 152.119 40.3417 152.319 40.225C152.519 40.105 152.679 39.9367 152.799 39.72C152.923 39.5033 152.984 39.2467 152.984 38.95ZM156.656 41H155.781V34.12H156.656V41ZM162.209 41V40.2C162.182 40.2833 162.104 40.3983 161.974 40.545C161.847 40.6917 161.672 40.825 161.449 40.945C161.229 41.0617 160.969 41.12 160.669 41.12C160.289 41.12 159.944 41.03 159.634 40.85C159.327 40.67 159.082 40.4183 158.899 40.095C158.719 39.7683 158.629 39.3867 158.629 38.95C158.629 38.5133 158.719 38.1333 158.899 37.81C159.082 37.4833 159.327 37.23 159.634 37.05C159.944 36.8667 160.289 36.775 160.669 36.775C160.965 36.775 161.222 36.8283 161.439 36.935C161.659 37.0417 161.834 37.165 161.964 37.305C162.097 37.445 162.175 37.565 162.199 37.665V36.895H163.059V41H162.209ZM159.489 38.95C159.489 39.2467 159.554 39.5033 159.684 39.72C159.814 39.9367 159.982 40.105 160.189 40.225C160.399 40.3417 160.622 40.4 160.859 40.4C161.112 40.4 161.339 40.34 161.539 40.22C161.739 40.1 161.897 39.9317 162.014 39.715C162.13 39.495 162.189 39.24 162.189 38.95C162.189 38.66 162.13 38.4067 162.014 38.19C161.897 37.97 161.739 37.8 161.539 37.68C161.339 37.5567 161.112 37.495 160.859 37.495C160.622 37.495 160.399 37.555 160.189 37.675C159.982 37.795 159.814 37.9633 159.684 38.18C159.554 38.3967 159.489 38.6533 159.489 38.95ZM164.871 36.895H165.676V35.21H166.541V36.895H167.596V37.64H166.541V39.67C166.541 39.91 166.583 40.0867 166.666 40.2C166.753 40.3133 166.868 40.37 167.011 40.37C167.138 40.37 167.236 40.3467 167.306 40.3C167.376 40.2533 167.418 40.2217 167.431 40.205L167.776 40.845C167.756 40.8617 167.703 40.8933 167.616 40.94C167.53 40.9867 167.418 41.0283 167.281 41.065C167.145 41.1017 166.985 41.12 166.801 41.12C166.481 41.12 166.213 41.0233 165.996 40.83C165.783 40.6333 165.676 40.3233 165.676 39.9V37.64H164.871V36.895ZM169.147 36.895H169.987V35.73C169.987 35.3133 170.059 34.9783 170.202 34.725C170.349 34.4717 170.534 34.2883 170.757 34.175C170.984 34.0583 171.215 34 171.452 34C171.739 34 171.959 34.04 172.112 34.12C172.269 34.2 172.362 34.2533 172.392 34.28L172.042 34.945C172.025 34.925 171.974 34.8883 171.887 34.835C171.8 34.7817 171.682 34.755 171.532 34.755C171.422 34.755 171.315 34.7817 171.212 34.835C171.109 34.8883 171.022 34.9917 170.952 35.145C170.882 35.2983 170.847 35.5267 170.847 35.83V36.895H172.017V37.64H170.847V41H169.987V37.64H169.147V36.895ZM175.703 41.12C175.28 41.12 174.903 41.025 174.573 40.835C174.247 40.645 173.99 40.3883 173.803 40.065C173.617 39.7383 173.523 39.37 173.523 38.96C173.523 38.55 173.617 38.18 173.803 37.85C173.99 37.52 174.247 37.2583 174.573 37.065C174.903 36.8717 175.28 36.775 175.703 36.775C176.123 36.775 176.495 36.8717 176.818 37.065C177.145 37.2583 177.4 37.52 177.583 37.85C177.767 38.18 177.858 38.55 177.858 38.96C177.858 39.37 177.767 39.7383 177.583 40.065C177.4 40.3883 177.145 40.645 176.818 40.835C176.495 41.025 176.123 41.12 175.703 41.12ZM175.703 40.375C175.97 40.375 176.202 40.3133 176.398 40.19C176.598 40.0667 176.753 39.8983 176.863 39.685C176.973 39.4683 177.028 39.225 177.028 38.955C177.028 38.685 176.973 38.4417 176.863 38.225C176.753 38.0083 176.598 37.8367 176.398 37.71C176.202 37.5833 175.97 37.52 175.703 37.52C175.433 37.52 175.198 37.5833 174.998 37.71C174.798 37.8367 174.642 38.0083 174.528 38.225C174.418 38.4417 174.363 38.685 174.363 38.955C174.363 39.225 174.418 39.4683 174.528 39.685C174.642 39.8983 174.798 40.0667 174.998 40.19C175.198 40.3133 175.433 40.375 175.703 40.375ZM180.678 41H179.813V36.895H180.678V37.605H180.653C180.67 37.5183 180.731 37.41 180.838 37.28C180.945 37.15 181.091 37.0333 181.278 36.93C181.465 36.8267 181.688 36.775 181.948 36.775C182.138 36.775 182.305 36.8017 182.448 36.855C182.595 36.905 182.698 36.955 182.758 37.005L182.403 37.725C182.356 37.6783 182.275 37.6317 182.158 37.585C182.041 37.535 181.896 37.51 181.723 37.51C181.503 37.51 181.315 37.5783 181.158 37.715C181.001 37.8517 180.881 38.0167 180.798 38.21C180.718 38.4 180.678 38.5767 180.678 38.74V41ZM189.244 36.775C189.547 36.775 189.807 36.8417 190.024 36.975C190.241 37.105 190.406 37.305 190.519 37.575C190.636 37.845 190.694 38.19 190.694 38.61V41H189.834V38.785C189.834 38.3417 189.772 38.0083 189.649 37.785C189.526 37.5617 189.301 37.45 188.974 37.45C188.801 37.45 188.634 37.4983 188.474 37.595C188.317 37.6883 188.187 37.8333 188.084 38.03C187.984 38.2267 187.934 38.4783 187.934 38.785V41H187.124V38.785C187.124 38.3417 187.047 38.0083 186.894 37.785C186.741 37.5617 186.526 37.45 186.249 37.45C186.072 37.45 185.906 37.4967 185.749 37.59C185.596 37.68 185.471 37.8233 185.374 38.02C185.277 38.2167 185.229 38.4717 185.229 38.785V41H184.364V36.895H185.229V37.525C185.266 37.4217 185.344 37.3117 185.464 37.195C185.587 37.0783 185.744 36.98 185.934 36.9C186.127 36.8167 186.342 36.775 186.579 36.775C186.826 36.775 187.032 36.825 187.199 36.925C187.366 37.025 187.497 37.1483 187.594 37.295C187.691 37.4383 187.757 37.5767 187.794 37.71C187.841 37.5667 187.931 37.4233 188.064 37.28C188.197 37.1333 188.366 37.0133 188.569 36.92C188.772 36.8233 188.997 36.775 189.244 36.775Z" fill="#19191A"/>
</svg>
